<?xml version="1.0" standalone="no"?>
<!DOCTYPE svg PUBLIC "-//W3C//DTD SVG 20010904//EN" "http://www.w3.org/TR/2001/REC-SVG-20010904/DTD/svg10.dtd">
<svg version="1.0" xmlns="http://www.w3.org/2000/svg" width="1024.000000pt" height="1024.000000pt" viewBox="0 0 1024.000000 1024.000000" preserveAspectRatio="xMidYMid meet">
  <metadata>
Created by potrace 1.11, written by Peter Selinger 2001-2013
</metadata>
  <g transform="translate(0.000000,1024.000000) scale(0.100000,-0.100000)" fill="#000000" stroke="none">
    <path d="M4740 5560 l0 -3580 635 0 635 0 2 376 3 377 47 -59 c121 -154 288
-318 423 -419 240 -177 551 -312 845 -366 163 -29 439 -32 605 -5 450 72 821
268 1151 608 285 294 481 653 593 1090 94 363 128 694 118 1148 -6 294 -23
470 -68 697 -133 682 -450 1185 -961 1525 -347 231 -757 340 -1223 325 -278
-9 -495 -61 -743 -178 -197 -92 -373 -220 -569 -413 l-123 -120 0 1287 0 1287
-685 0 -685 0 0 -3580z m2781 637 c183 -48 334 -135 474 -275 200 -201 309
-457 372 -877 26 -175 26 -779 0 -945 -62 -398 -164 -633 -363 -840 -139 -144
-285 -233 -465 -282 -72 -20 -108 -23 -249 -23 -194 0 -285 19 -437 90 -121
57 -188 102 -284 193 -327 308 -462 722 -462 1417 -1 354 24 544 99 775 137
424 452 714 854 786 119 21 342 12 461 -19z" />
    <path d="M2148 8596 l-688 -401 0 -512 0 -513 -315 0 -315 0 0 -550 0 -550
315 0 315 0 0 -1292 c0 -1231 7 -1648 31 -1838 26 -219 93 -443 169 -571 116
-195 331 -345 623 -433 186 -57 300 -71 552 -69 239 1 397 17 597 59 160 34
426 118 450 142 6 7 -105 1049 -114 1057 -2 2 -60 -14 -128 -36 -151 -49 -268
-76 -375 -85 -173 -14 -320 59 -381 191 -39 84 -44 250 -44 1613 l0 1262 470
0 470 0 0 550 0 550 -470 0 -470 0 -2 913 -3 913 -687 -400z" />
  </g>
</svg>