<?xml version="1.0" standalone="no"?>
<!DOCTYPE svg PUBLIC "-//W3C//DTD SVG 20010904//EN"
 "http://www.w3.org/TR/2001/REC-SVG-20010904/DTD/svg10.dtd">
<svg version="1.0" xmlns="http://www.w3.org/2000/svg"
 width="512.000000pt" height="512.000000pt" viewBox="0 0 512.000000 512.000000"
 preserveAspectRatio="xMidYMid meet">
<metadata>
Created by potrace 1.11, written by Peter Selinger 2001-2013
</metadata>
<g transform="translate(0.000000,512.000000) scale(0.100000,-0.100000)"
fill="#000000" stroke="none">
<path d="M4508 4781 c-20 -10 -39 -16 -42 -13 -4 3 -6 0 -6 -6 0 -7 -3 -11 -7
-10 -9 1 -16 -1 -133 -51 -47 -20 -87 -36 -90 -37 -6 -1 -39 -15 -132 -55 -40
-17 -77 -32 -83 -33 -5 -2 -23 -9 -40 -16 -62 -27 -92 -39 -160 -66 -38 -15
-74 -31 -79 -35 -6 -5 -15 -9 -22 -9 -6 0 -38 -12 -70 -27 -33 -14 -63 -27
-69 -29 -5 -1 -66 -26 -135 -54 -183 -76 -190 -79 -198 -80 -4 -1 -11 -5 -17
-10 -5 -4 -27 -13 -47 -19 -21 -7 -38 -16 -38 -21 0 -8 297 -310 305 -310 2 0
16 5 32 12 15 6 30 12 33 13 3 0 21 8 40 17 19 9 50 22 68 29 17 8 32 17 32
21 0 5 3 7 8 6 16 -3 62 15 62 25 0 6 3 7 6 4 4 -3 16 -1 28 5 11 7 23 13 26
13 3 1 25 11 50 23 25 12 51 22 58 22 6 0 12 5 12 12 0 6 3 9 6 6 5 -6 127 46
186 78 15 8 31 15 35 16 5 0 35 13 68 28 105 48 103 52 35 -95 -42 -91 -78
-174 -84 -193 -4 -12 -12 -22 -17 -22 -6 0 -8 -4 -5 -8 2 -4 -4 -27 -14 -50
-11 -23 -19 -43 -18 -45 1 -1 -5 -13 -12 -27 -8 -14 -15 -27 -15 -30 -1 -3
-11 -24 -23 -47 -12 -23 -22 -49 -22 -58 0 -8 -4 -15 -10 -15 -5 0 -9 -3 -8
-7 1 -5 -8 -31 -21 -60 -13 -29 -22 -55 -21 -59 1 -4 -2 -10 -7 -13 -4 -3 -16
-20 -25 -38 l-17 -32 156 -156 c86 -85 159 -155 164 -155 5 0 9 7 9 15 0 8 12
40 26 72 37 84 39 89 80 193 21 52 42 98 47 101 5 3 8 10 7 15 -2 15 52 148
64 156 6 4 7 8 3 8 -4 0 -2 10 5 23 6 12 13 27 14 32 1 6 10 28 19 50 10 22
19 45 21 50 4 13 141 344 154 370 24 50 130 316 130 326 0 10 -253 270 -262
269 -2 -1 -20 -9 -40 -19z"/>
<path d="M3109 3576 c-2 -2 -18 -6 -34 -9 -69 -11 -173 -65 -228 -119 -15 -16
-32 -28 -37 -28 -6 0 -10 -7 -10 -16 0 -8 -4 -13 -9 -9 -5 3 -12 -4 -16 -15
-3 -11 -10 -20 -14 -20 -12 0 -90 -158 -96 -195 -4 -16 -8 -50 -11 -75 -3 -24
-6 -46 -8 -47 -3 -4 -104 95 -101 99 2 2 -3 9 -11 16 -8 7 -14 11 -14 9 0 -3
-52 47 -115 111 -63 63 -115 119 -115 124 0 5 -3 8 -7 6 -10 -5 -62 49 -55 56
3 4 -4 6 -15 6 -13 0 -84 -63 -198 -176 l-176 -177 648 -648 648 -649 169 170
169 169 -66 66 c-37 36 -66 65 -64 66 1 0 47 2 102 3 55 2 107 6 115 8 8 3 30
9 48 13 17 4 32 11 32 16 0 5 8 9 18 9 29 1 141 98 192 168 64 87 92 171 95
287 1 50 -1 97 -6 106 -4 8 -10 26 -12 40 -2 13 -6 31 -10 39 -13 35 -18 55
-15 56 2 1 -5 10 -14 20 -9 11 -18 26 -20 34 -3 14 -69 119 -93 148 -49 60
-152 159 -209 201 -64 49 -186 118 -186 106 0 -3 -9 -1 -21 5 -11 6 -30 14
-42 17 -28 6 -203 14 -208 9z m71 -497 c68 -18 216 -163 262 -256 27 -54 30
-70 25 -117 -11 -109 -96 -181 -211 -178 -33 0 -62 6 -66 12 -4 7 -10 10 -12
8 -9 -5 -88 42 -88 53 0 5 -4 9 -9 9 -26 0 -132 126 -158 187 -14 34 -19 102
-10 143 7 33 77 135 77 113 0 -4 6 -1 13 8 7 9 21 19 32 22 21 6 118 3 145 -4z"/>
<path d="M1460 2725 c-7 -8 -9 -15 -5 -15 4 0 2 -6 -4 -14 -6 -8 -10 -18 -9
-22 2 -5 -5 -29 -14 -54 -25 -69 -109 -332 -114 -360 -3 -13 -10 -30 -16 -38
-12 -14 5 -35 115 -141 32 -30 54 -57 49 -59 -16 -5 -122 -114 -122 -125 0 -6
59 -69 131 -140 l131 -130 20 31 c11 18 24 29 29 26 5 -3 9 0 9 5 0 13 31 46
57 59 16 9 43 -14 188 -160 182 -183 255 -251 299 -283 16 -11 34 -26 41 -33
8 -6 21 -12 29 -12 9 0 16 -5 16 -12 0 -6 3 -8 6 -5 4 3 15 2 26 -4 63 -34
177 -28 248 12 51 29 148 109 205 171 64 68 81 88 149 184 l44 61 -35 29 c-19
16 -39 31 -44 32 -5 2 -7 8 -3 13 3 5 1 8 -4 7 -5 -2 -24 9 -41 25 -17 15 -34
27 -37 27 -4 0 -14 8 -23 18 -9 10 -32 30 -53 46 -28 21 -38 24 -44 14 -5 -7
-9 -16 -9 -20 0 -17 -78 -109 -103 -121 -25 -14 -35 -14 -72 -6 -27 7 -409
391 -403 406 3 8 8 11 11 9 3 -3 15 8 27 24 12 16 24 28 27 25 2 -3 11 6 18
20 7 14 20 25 28 25 9 0 13 3 9 6 -3 3 10 20 29 37 19 18 34 35 34 40 0 4 -58
66 -128 137 l-129 129 -98 -99 c-93 -94 -100 -98 -116 -82 -9 9 -89 88 -176
175 -138 136 -162 156 -173 142z"/>
<path d="M920 1985 c0 -8 -4 -15 -8 -15 -5 0 -9 -6 -9 -12 0 -11 -89 -233
-128 -323 -39 -88 -54 -125 -49 -125 2 0 -2 -10 -10 -22 -8 -13 -29 -59 -46
-103 -17 -44 -38 -94 -47 -112 -8 -17 -16 -37 -17 -45 -1 -7 -8 -23 -14 -35
-7 -13 -9 -23 -5 -23 4 0 4 -4 -2 -8 -9 -6 -51 -98 -59 -127 -4 -13 -12 -32
-57 -137 -20 -48 -34 -89 -31 -92 3 -3 0 -6 -6 -6 -7 0 -12 -7 -12 -14 0 -8
-15 -49 -34 -90 -19 -42 -32 -76 -29 -76 3 0 0 -7 -7 -15 -10 -12 10 -37 121
-149 l133 -134 28 14 c15 8 28 11 28 7 0 -5 4 -2 8 4 4 7 17 14 27 16 11 1 25
5 30 9 6 3 89 38 185 78 182 74 224 92 275 115 68 31 221 90 228 87 4 -1 7 3
7 8 0 6 7 10 15 10 8 0 23 4 33 10 9 5 46 21 82 35 36 14 74 30 85 35 78 37
235 97 239 92 3 -3 6 0 6 6 0 7 7 12 15 12 9 0 37 11 64 25 27 13 51 21 55 18
3 -4 6 -1 6 4 0 14 -297 313 -310 313 -5 0 -48 -18 -95 -39 -47 -22 -88 -40
-90 -41 -3 0 -31 -13 -62 -27 -32 -15 -61 -26 -65 -25 -5 1 -8 -3 -8 -9 0 -5
-4 -8 -9 -4 -5 3 -12 1 -16 -5 -3 -5 -15 -10 -25 -10 -10 0 -20 -5 -22 -10 -2
-6 -13 -12 -26 -13 -12 0 -22 -5 -22 -9 0 -4 -4 -8 -10 -8 -5 0 -44 -16 -86
-35 -41 -19 -81 -35 -89 -35 -7 0 -18 -7 -25 -15 -7 -8 -19 -15 -27 -15 -7 0
-25 -7 -38 -16 -14 -9 -25 -14 -25 -12 0 3 -21 -5 -47 -18 -26 -12 -49 -21
-51 -19 -2 2 5 18 14 37 10 18 19 35 19 38 2 8 23 57 44 103 43 96 92 205 96
217 1 3 10 23 20 45 10 22 19 42 20 45 1 3 16 36 33 74 18 38 32 70 32 72 0 1
17 40 39 86 21 46 41 93 45 104 5 18 -18 47 -144 173 -83 83 -156 151 -161
151 -5 0 -9 -7 -9 -15z"/>
</g>
</svg>
