<?xml version="1.0" standalone="no"?>
<!DOCTYPE svg PUBLIC "-//W3C//DTD SVG 20010904//EN"
 "http://www.w3.org/TR/2001/REC-SVG-20010904/DTD/svg10.dtd">
<svg version="1.0" xmlns="http://www.w3.org/2000/svg"
 width="1024.000000pt" height="1024.000000pt" viewBox="0 0 1024.000000 1024.000000"
 preserveAspectRatio="xMidYMid meet">
<metadata>
Created by potrace 1.11, written by Peter Selinger 2001-2013
</metadata>
<g transform="translate(0.000000,1024.000000) scale(0.100000,-0.100000)"
fill="#000000" stroke="none">
<path d="M8610 8825 c-19 -8 -132 -52 -250 -98 -118 -46 -280 -109 -360 -140
-80 -31 -246 -95 -370 -142 -124 -48 -313 -120 -420 -161 -107 -42 -271 -105
-365 -141 -93 -36 -251 -97 -350 -135 -99 -38 -200 -77 -225 -85 -25 -8 -48
-18 -52 -22 -4 -4 52 -66 125 -138 l132 -131 695 275 c382 151 751 296 820
323 330 128 385 150 392 150 4 0 -13 -48 -37 -107 -45 -112 -118 -296 -298
-753 -270 -684 -407 -1036 -407 -1045 0 -6 58 -68 129 -139 l129 -129 17 39
c9 21 34 84 55 139 43 113 84 219 160 415 28 74 60 158 69 185 10 28 28 73 39
100 12 28 74 187 138 355 190 497 280 732 375 974 l90 230 -98 97 -98 98 -35
-14z"/>
<path d="M5560 6823 c-46 -8 -153 -44 -204 -70 -124 -62 -283 -207 -362 -329
-82 -128 -139 -290 -170 -480 -10 -57 -20 -104 -23 -104 -3 0 -186 180 -406
400 -220 220 -404 400 -410 400 -13 0 -265 -252 -265 -265 0 -6 514 -524 1143
-1153 l1142 -1142 129 129 129 129 -27 47 c-15 26 -26 48 -24 49 1 1 39 15 83
30 173 60 287 125 418 240 143 123 263 311 308 481 26 99 32 354 10 450 -62
278 -208 524 -448 756 -247 239 -474 374 -716 425 -63 13 -246 17 -307 7z
m295 -422 c235 -83 535 -341 707 -609 128 -198 153 -422 68 -608 -59 -131
-176 -264 -321 -367 -64 -45 -211 -120 -292 -148 l-38 -13 -470 470 -471 471
17 89 c34 186 113 373 211 501 53 69 163 163 231 197 99 50 244 57 358 17z"/>
<path d="M3733 5108 l-283 -283 -235 235 -235 235 -140 -140 -140 -140 235
-235 235 -235 -92 -93 -93 -92 117 -117 118 -118 88 88 c48 48 92 87 97 87 5
0 225 -215 489 -478 265 -263 513 -502 551 -530 134 -101 293 -162 420 -162
114 0 260 55 375 140 122 91 274 265 381 438 l33 53 -126 126 -125 125 -52
-95 c-61 -114 -128 -200 -213 -274 -116 -101 -198 -127 -308 -99 -125 32 -145
49 -660 562 l-485 484 285 285 285 285 -115 115 c-63 63 -117 115 -120 115 -3
0 -132 -127 -287 -282z"/>
<path d="M2308 3953 c-15 -38 -50 -129 -78 -203 -28 -74 -62 -162 -75 -195
-13 -33 -47 -121 -75 -195 -28 -74 -61 -162 -75 -195 -13 -33 -42 -107 -64
-165 -50 -131 -192 -502 -276 -720 -51 -133 -159 -413 -250 -651 l-14 -36 98
-97 97 -97 614 236 c338 130 689 265 780 300 91 35 253 97 360 139 107 41 294
113 415 159 121 47 230 88 243 92 12 3 22 9 22 13 0 7 -189 195 -241 240 l-26
22 -434 -170 c-239 -94 -508 -201 -599 -237 -252 -99 -530 -209 -685 -270 -77
-30 -151 -59 -164 -64 -13 -5 -25 -8 -27 -7 -1 2 11 37 28 78 17 41 54 136 83
210 28 74 184 469 344 878 l293 742 -122 128 c-68 70 -128 128 -134 130 -6 1
-23 -28 -38 -65z"/>
</g>
</svg>
